<?xml version="1.0" standalone="no"?>
<!DOCTYPE svg PUBLIC "-//W3C//DTD SVG 20010904//EN"
 "http://www.w3.org/TR/2001/REC-SVG-20010904/DTD/svg10.dtd">
<svg version="1.0" xmlns="http://www.w3.org/2000/svg"
 width="1024.000000pt" height="1024.000000pt" viewBox="0 0 1024.000000 1024.000000"
 preserveAspectRatio="xMidYMid meet">
<metadata>
Created by potrace 1.16, written by Peter Selinger 2001-2019
</metadata>
<g transform="translate(0.000000,1024.000000) scale(0.100000,-0.100000)"
fill="#000000" stroke="none">
<path d="M0 5120 l0 -5120 5120 0 5120 0 0 3685 c0 3499 -1 3685 -18 3685 -16
1 -16 1 0 14 38 29 15 46 -36 26 -21 -7 -26 -6 -26 5 0 9 10 15 24 15 50 0 56
8 56 75 l0 63 -36 12 c-26 9 -33 15 -25 23 15 15 14 27 -4 27 -8 0 -15 5 -15
10 0 6 -18 10 -40 10 -57 0 -55 -27 3 -33 l42 -4 -42 -1 c-30 -1 -43 -6 -43
-16 0 -12 -7 -13 -32 -5 -48 13 -48 13 -48 -37 0 -32 -4 -44 -12 -41 -7 2 -11
11 -9 18 2 8 3 23 3 34 -4 60 0 110 11 117 6 3 -7 8 -29 11 l-39 4 38 1 c50 3
48 22 -3 22 -54 0 -51 20 3 21 43 1 42 3 -5 13 -25 6 -28 11 -28 46 0 22 5 40
10 40 6 0 10 -18 10 -40 0 -22 5 -40 10 -40 6 0 10 20 10 45 0 33 -6 51 -23
68 l-22 22 -3 -27 c-3 -25 -7 -28 -43 -28 -30 0 -39 -4 -39 -17 -1 -17 -1 -17
-14 0 -18 24 -26 21 -26 -8 0 -30 -16 -33 -25 -5 -9 30 4 43 36 36 28 -5 29
-4 29 34 0 33 3 40 20 40 17 0 20 7 20 40 0 33 -3 40 -20 40 -17 0 -20 -7 -20
-40 0 -22 -4 -40 -10 -40 -5 0 -10 19 -10 42 l0 41 -107 -5 c-60 -2 -91 -3
-70 -1 25 3 37 9 37 19 0 20 -39 53 -63 54 -16 0 -17 2 -3 15 19 20 46 19 46
-1 0 -11 5 -14 16 -10 9 3 31 6 50 6 19 0 34 5 34 10 0 6 -18 10 -40 10 -22 0
-40 5 -40 10 0 6 18 10 40 10 22 0 40 5 40 10 0 6 -18 10 -40 10 l-40 0 0 50
c0 46 -7 60 -23 43 -4 -3 -2 -12 4 -20 9 -10 5 -13 -19 -13 -17 0 -33 -6 -35
-12 -3 -7 -6 4 -6 26 l-1 38 80 -7 80 -7 0 41 c0 30 4 41 15 41 11 0 15 -11
15 -40 0 -22 5 -40 10 -40 6 0 10 18 10 39 0 44 -13 54 -59 45 -28 -6 -28 -5
-33 47 -4 37 -1 57 8 67 18 18 18 42 -1 42 -9 0 -15 -9 -15 -25 0 -16 -6 -25
-15 -25 -8 0 -15 -7 -15 -15 0 -11 -12 -15 -50 -15 -27 0 -50 -4 -50 -10 0
-17 -32 -11 -49 9 -15 16 -72 51 -86 51 -3 0 -5 -7 -5 -15 0 -9 -9 -15 -25
-15 -14 0 -25 5 -25 10 0 6 -7 10 -15 10 -8 0 -15 -4 -15 -10 0 -5 7 -10 15
-10 8 0 15 -4 15 -10 0 -5 11 -10 25 -10 14 0 25 5 25 10 0 20 56 10 78 -14
18 -21 19 -28 9 -50 -7 -14 -15 -26 -19 -26 -5 0 -8 -7 -8 -15 0 -8 -9 -19
-20 -25 -11 -6 -20 -17 -20 -24 0 -9 -14 -12 -47 -11 -32 2 -35 1 -10 -2 36
-4 37 -5 37 -44 0 -39 0 -39 -40 -39 -36 0 -40 3 -40 25 0 27 -9 32 -27 14
-13 -13 -53 9 -53 28 0 9 -20 13 -70 13 l-70 0 0 -41 c0 -33 -3 -40 -16 -35
-9 3 -31 6 -50 6 -19 0 -34 5 -34 10 0 6 18 10 40 10 23 0 40 5 40 11 0 8 -18
10 -61 5 -34 -3 -70 -6 -80 -6 -12 0 -19 -7 -19 -19 0 -16 -12 -19 -107 -23
-150 -8 -213 -1 -213 23 0 15 8 19 40 19 33 0 40 -3 40 -20 0 -17 7 -20 40
-20 45 0 54 14 15 24 -14 4 -25 11 -25 16 0 5 11 12 25 16 39 10 30 24 -15 24
l-40 0 0 80 0 80 -60 0 -60 0 0 -40 c0 -33 3 -40 20 -40 17 0 20 -7 20 -40 l0
-40 -40 0 c-22 0 -40 -4 -40 -9 0 -10 -69 -25 -77 -17 -3 2 13 10 36 17 29 8
41 18 41 31 0 11 -7 18 -20 18 -13 0 -20 7 -20 20 0 13 7 20 20 20 18 0 20 7
21 78 l0 77 16 -32 c21 -41 27 -41 44 -1 7 17 15 26 17 20 2 -7 21 -12 43 -12
21 0 39 -4 39 -10 0 -5 -18 -10 -40 -10 -22 0 -40 -4 -40 -10 0 -6 47 -10 120
-10 112 0 120 1 120 19 0 16 -8 21 -42 24 l-43 4 43 1 c23 1 42 7 42 12 0 6
25 10 55 10 30 0 55 -4 55 -10 0 -5 -4 -10 -10 -10 -15 0 -12 -29 5 -46 13
-14 17 -14 30 0 19 19 19 33 0 52 -8 9 -15 33 -15 55 0 21 -4 39 -10 39 -5 0
-10 5 -10 10 0 6 9 10 20 10 11 0 20 -4 20 -10 0 -5 8 -10 18 -10 16 1 16 1 0
14 -10 7 -18 19 -18 26 0 7 8 19 18 26 16 13 16 13 0 14 -10 0 -18 -4 -18 -10
0 -16 -30 -12 -48 6 -12 12 -29 15 -69 12 -46 -4 -53 -2 -53 14 0 10 -7 18
-16 18 -10 0 -14 -5 -10 -15 4 -12 -2 -14 -34 -10 -23 3 -40 1 -40 -5 0 -6 11
-10 25 -10 14 0 25 -4 25 -10 0 -5 15 -10 34 -10 19 0 38 5 41 10 9 15 74 12
91 -4 16 -17 19 -46 4 -46 -5 0 -10 -8 -10 -19 0 -13 -10 -20 -31 -25 -39 -8
-87 3 -67 15 8 6 1 9 -22 9 -29 0 -36 -4 -37 -21 -2 -18 3 -20 28 -17 33 5 35
3 15 -17 -10 -10 -16 -11 -24 -3 -7 7 -15 8 -19 4 -4 -4 -1 -11 7 -16 19 -12
-26 -23 -66 -17 -29 4 -28 4 4 6 31 1 32 3 32 42 l0 42 -47 -5 c-27 -3 -40 -3
-30 -1 10 3 17 14 17 29 0 16 -6 24 -17 24 -16 1 -16 2 1 15 18 14 17 15 -23
15 -23 0 -51 -5 -62 -10 -12 -7 -26 -7 -36 -2 -20 10 -43 5 -43 -9 0 -5 9 -9
19 -9 27 0 34 -15 16 -30 -8 -7 -15 -16 -15 -19 0 -4 36 -13 80 -20 44 -8 80
-18 80 -23 0 -5 -8 -7 -17 -4 -10 2 -38 7 -63 11 -25 4 -53 9 -62 11 -13 4
-18 0 -18 -15 0 -17 5 -20 28 -15 15 3 45 1 67 -4 39 -9 38 -9 -22 -9 -34 -1
-66 -4 -72 -8 -6 -3 -11 -24 -11 -46 0 -21 -4 -39 -10 -39 -5 0 -10 18 -10 40
0 22 -4 40 -10 40 -5 0 -10 -18 -10 -40 0 -22 -4 -40 -10 -40 -5 0 -10 18 -10
40 0 37 -1 39 -23 31 -14 -6 -30 -5 -42 2 -14 7 -20 7 -23 -1 -2 -7 -21 -12
-43 -12 l-39 0 0 90 c0 83 -1 90 -20 90 -11 0 -20 -7 -20 -15 0 -8 -9 -15 -20
-15 -22 0 -28 26 -7 33 7 2 8 8 3 13 -5 5 -11 4 -13 -3 -7 -19 -83 -17 -83 2
0 8 -4 15 -10 15 -5 0 -10 -7 -10 -15 0 -8 5 -15 10 -15 6 0 10 -35 10 -86 l0
-86 75 7 c41 4 75 4 75 1 0 -3 -14 -20 -32 -38 l-32 -33 39 -6 40 -6 -42 -2
c-26 0 -43 4 -43 10 0 7 -17 10 -45 7 l-45 -3 0 37 c0 27 -4 38 -15 38 -11 0
-15 -11 -15 -40 0 -27 -4 -40 -14 -40 -9 0 -15 20 -20 61 -9 93 -8 99 14 99
17 0 20 7 20 39 0 30 -4 40 -20 44 -18 5 -20 0 -20 -39 l0 -44 -49 0 c-80 0
-111 -9 -111 -34 0 -17 -2 -18 -10 -6 -13 21 -12 40 2 40 6 0 29 8 49 18 l38
17 1 103 0 102 40 0 c31 0 40 -4 40 -17 0 -15 2 -16 10 -3 6 10 5 17 -6 23
-19 11 -164 -2 -164 -14 0 -5 -18 -9 -40 -9 l-40 0 0 -70 0 -70 -80 0 c-83 0
-115 -19 -37 -22 l42 -1 -37 -4 c-20 -2 -47 1 -60 8 -22 12 -22 12 -3 20 11 4
37 8 58 8 27 1 37 5 37 17 0 14 -8 15 -55 9 -46 -5 -55 -4 -55 9 0 9 7 16 15
16 8 0 15 5 15 10 0 6 5 10 10 10 6 0 9 -6 8 -12 -2 -8 10 -14 30 -16 24 -2
32 1 32 12 0 11 9 16 30 16 28 0 30 2 30 41 l0 41 -79 -3 c-76 -4 -78 -3 -71
17 11 27 -3 49 -25 40 -12 -4 -15 -13 -11 -31 5 -20 2 -26 -19 -31 -15 -4 -53
-3 -85 0 -55 6 -59 6 -63 -16 l-4 -23 -8 23 c-5 16 -15 22 -35 22 -35 0 -60 9
-60 22 0 6 8 7 18 3 33 -13 142 -18 142 -6 0 6 -17 11 -40 11 -22 0 -40 5 -40
10 0 6 18 10 40 10 22 0 40 5 40 10 0 6 -21 10 -47 11 -27 0 -81 3 -120 5
l-73 5 0 -41 c0 -28 -4 -40 -14 -40 -9 0 -16 -12 -18 -27 l-3 -28 -28 28 c-25
25 -35 27 -102 27 -78 0 -103 -16 -37 -23 20 -2 12 -3 -19 -1 -30 2 -66 8 -80
13 -21 9 -20 10 17 10 l41 1 6 53 c3 29 3 65 0 80 -5 24 -10 27 -44 27 -39 0
-39 0 -39 -40 l0 -40 -45 0 c-52 0 -65 16 -47 56 10 21 9 24 -8 24 -11 0 -20
5 -20 10 0 15 -29 12 -46 -4 -9 -10 -11 -17 -4 -21 8 -5 7 -11 -1 -21 -9 -11
-15 -12 -26 -3 -8 7 -12 18 -9 26 3 8 -2 13 -14 13 -17 0 -20 7 -20 40 0 30 4
40 16 40 13 0 15 5 9 23 -13 39 -17 134 -6 155 9 16 7 21 -9 25 -17 4 -18 11
-13 61 4 37 2 56 -5 56 -6 0 -13 -19 -15 -42 l-4 -43 -1 43 c-2 35 -5 42 -22
42 -17 0 -20 -7 -20 -41 0 -36 -2 -39 -15 -25 -18 17 -20 46 -4 46 8 0 10 13
6 38 -3 20 -3 31 0 25 2 -7 21 -13 41 -13 30 0 39 5 49 25 9 21 9 25 -5 25
-10 0 -30 7 -46 15 -30 16 -52 11 -26 -5 12 -8 10 -10 -9 -10 -14 0 -37 14
-58 36 -19 20 -37 33 -41 29 -4 -4 -1 -10 6 -12 26 -10 10 -23 -28 -23 -38 0
-54 13 -27 23 7 2 8 8 3 13 -5 5 -11 4 -13 -3 -3 -9 -30 -13 -84 -13 -66 0
-79 -3 -79 -16 0 -14 10 -15 75 -9 60 5 79 4 97 -9 21 -15 17 -16 -75 -16 -97
0 -97 0 -97 -25 0 -22 -4 -25 -40 -25 -39 0 -40 1 -40 35 l0 35 -79 0 c-54 0
-81 -4 -84 -12 -3 -7 -6 10 -6 39 -1 28 -4 58 -7 67 -8 21 -24 10 -24 -15 0
-28 -23 -19 -32 12 -4 13 -5 0 -2 -31 2 -30 0 -80 -6 -110 l-9 -55 4 63 c3 37
1 62 -5 62 -6 0 -10 9 -10 20 0 13 -7 20 -20 20 -13 0 -20 -7 -20 -20 0 -11
-4 -20 -10 -20 -5 0 -10 -9 -10 -20 0 -17 -7 -20 -50 -20 -27 0 -50 -4 -50
-10 0 -5 -9 -10 -20 -10 -31 0 -24 18 10 25 17 4 30 11 30 16 0 12 -14 11 -44
-2 -26 -12 -116 -4 -116 11 0 5 14 11 30 15 30 7 42 24 18 26 -7 0 1 5 17 10
17 5 63 7 103 3 61 -5 72 -4 72 9 0 11 -12 17 -42 20 l-43 4 43 1 c30 1 42 6
42 17 0 12 -13 15 -59 15 -32 0 -86 3 -120 6 l-61 7 0 33 c0 24 -4 32 -14 28
-8 -3 -17 -1 -21 5 -3 7 2 11 14 11 12 0 21 5 21 10 0 6 -18 10 -40 10 -38 0
-40 2 -40 30 0 19 -5 30 -14 30 -10 0 -16 14 -19 43 l-4 42 -1 -42 c-2 -36 -5
-43 -22 -43 -18 0 -20 -7 -20 -79 l0 -79 -76 -7 c-41 -4 -78 -4 -81 -1 -4 3
12 6 35 6 l42 0 0 40 c0 29 4 40 15 40 11 0 15 11 15 40 0 22 -4 40 -9 40 -6
0 -11 19 -13 43 l-3 42 -60 1 -60 1 60 -7 c54 -6 55 -7 18 -8 -54 -2 -57 -22
-3 -22 36 0 40 -2 40 -25 0 -22 -4 -25 -40 -25 -29 0 -40 4 -40 15 0 11 -11
15 -40 15 -29 0 -40 -4 -40 -15 0 -11 -12 -15 -45 -15 -37 0 -43 3 -38 16 5
14 3 15 -15 5 -25 -13 -62 -14 -62 -2 0 5 12 11 28 13 19 2 27 8 26 21 -1 9 4
17 12 17 8 0 14 -4 14 -10 0 -5 18 -10 40 -10 28 0 40 4 40 15 0 10 -15 15
-57 17 -56 3 -56 4 -20 11 20 4 53 9 72 12 46 8 45 23 -2 30 -101 15 -153 29
-153 38 0 7 -4 7 -12 -1 -7 -7 -24 -12 -39 -12 -25 0 -28 -4 -32 -42 l-4 -43
-1 43 c-2 40 -4 42 -32 42 -28 0 -30 -2 -30 -40 0 -40 0 -40 -37 -39 -37 1
-37 2 -8 8 27 5 30 11 33 47 3 37 0 42 -22 48 -33 8 -33 24 -1 32 33 8 33 34
0 34 -30 0 -33 16 -5 23 11 3 19 11 18 19 -2 9 16 15 67 19 39 3 78 10 88 14
10 4 17 3 17 -3 0 -6 -9 -14 -20 -17 -24 -8 -27 -40 -4 -49 8 -3 23 1 31 10
12 11 26 14 54 9 26 -4 39 -3 39 4 0 6 -4 11 -10 11 -5 0 -10 7 -10 15 0 8 4
15 9 15 11 0 26 -20 26 -35 0 -5 8 -11 18 -13 11 -2 17 3 17 16 0 11 6 20 13
19 54 -2 69 3 64 23 -3 11 -1 23 4 26 5 3 9 -4 9 -15 0 -27 17 -27 25 -1 3 11
10 20 14 20 7 0 31 44 31 57 0 3 -7 0 -15 -7 -13 -11 -15 -6 -16 31 0 37 -2
40 -9 21 -5 -12 -7 -29 -4 -37 3 -8 -2 -22 -11 -32 -17 -16 -19 -16 -37 7 -14
18 -22 20 -30 12 -17 -17 -27 -15 -23 6 1 9 0 11 -2 5 -5 -14 -31 -17 -57 -7
-13 5 -12 9 7 25 21 18 22 18 2 19 -12 0 -27 6 -34 13 -11 10 -12 7 -7 -14 4
-18 1 -31 -9 -39 -13 -10 -15 -9 -15 9 0 11 -4 21 -10 21 -5 0 -10 -12 -10
-26 0 -23 -3 -25 -22 -19 -13 4 -37 9 -55 12 -18 3 -34 10 -36 17 -2 6 -2 1 0
-11 2 -17 -1 -23 -15 -23 -15 0 -18 6 -15 24 6 27 -15 45 -28 25 -5 -8 -6 -22
-3 -31 3 -10 1 -18 -5 -18 -23 0 -11 -38 14 -44 14 -4 23 -11 20 -16 -9 -14
-59 -12 -73 2 -8 8 -15 8 -26 -1 -7 -6 -20 -10 -27 -9 -8 2 -13 -3 -11 -10 1
-8 -7 -16 -18 -19 -11 -3 -20 -9 -20 -14 0 -12 17 -11 25 1 10 17 25 11 25 -9
0 -13 -11 -22 -37 -30 -30 -8 -31 -10 -8 -7 17 3 39 8 49 12 14 5 17 4 12 -4
-4 -7 -16 -12 -27 -12 -11 0 -17 -4 -14 -10 4 -6 -6 -7 -25 -4 -23 5 -30 3
-30 -10 0 -9 -4 -16 -10 -16 -13 0 -13 6 0 30 8 15 6 17 -10 13 -11 -3 -20
-12 -20 -19 0 -17 -12 -18 -28 -2 -14 14 -16 32 -2 23 11 -7 51 12 62 29 5 7
8 7 8 -2 0 -7 5 -10 11 -7 5 4 8 12 6 18 -2 7 5 20 15 29 12 10 18 26 16 43
-4 32 -23 29 -23 -4 0 -13 -5 -26 -10 -28 -6 -2 -10 13 -10 35 l0 37 -42 -10
c-24 -5 -43 -13 -43 -16 0 -4 18 -10 40 -14 40 -7 47 -25 9 -25 -11 0 -17 -5
-14 -10 4 -6 15 -8 26 -5 13 4 19 2 19 -9 0 -19 1 -19 -44 -1 -20 8 -36 22
-36 31 0 11 -6 13 -20 9 -12 -4 -27 -1 -35 5 -23 19 -18 48 8 53 19 4 19 4 -3
3 -14 0 -31 3 -38 8 -8 5 -18 4 -25 -3 -8 -8 -5 -11 11 -11 13 0 22 -6 22 -15
0 -11 -11 -15 -40 -15 -29 0 -40 4 -40 15 0 8 6 15 14 15 9 0 12 8 9 24 -4 21
-2 24 16 19 14 -4 21 -1 21 9 0 11 -14 15 -52 15 -29 0 -83 3 -119 7 -61 5
-67 4 -72 -14 -6 -25 -24 -26 -32 -1 -5 16 -16 19 -88 19 -53 1 -84 -3 -89
-11 -6 -9 -8 -9 -8 0 0 9 -465 12 -2080 13 l-2080 0 0 -5120z m5302 4109 c81
-58 74 -218 -13 -267 -16 -9 -29 -19 -29 -22 0 -3 17 -19 38 -35 68 -54 121
-116 138 -161 42 -110 -23 -260 -129 -297 -26 -9 -28 -12 -22 -45 27 -142 112
-273 209 -324 110 -57 281 41 383 219 57 99 58 105 27 150 -22 32 -25 46 -22
94 9 126 126 191 235 129 136 -76 92 -280 -64 -298 l-46 -5 6 -97 c12 -201
109 -340 236 -340 106 0 216 79 336 240 l68 91 -17 53 c-28 89 0 168 74 207
95 51 216 -15 227 -124 9 -90 -73 -177 -168 -177 -31 0 -38 -4 -47 -27 -20
-52 -71 -218 -97 -318 -15 -55 -46 -165 -70 -245 -24 -80 -49 -164 -55 -188
-9 -35 -14 -41 -28 -33 -50 26 -267 95 -411 131 -441 111 -948 129 -1461 54
-133 -19 -391 -85 -517 -131 -148 -54 -141 -57 -175 62 -16 55 -54 183 -84
285 -31 102 -69 232 -86 290 -16 58 -32 111 -34 118 -3 9 -11 11 -25 7 -37
-12 -106 15 -143 55 -46 51 -54 102 -26 167 45 105 171 124 256 38 35 -35 45
-129 19 -179 -8 -15 -15 -32 -15 -37 0 -5 30 -47 67 -95 143 -186 319 -283
420 -231 46 24 99 89 121 150 25 65 45 208 36 254 -6 31 -9 33 -47 33 -78 0
-147 73 -147 155 0 145 163 212 275 114 59 -52 66 -152 15 -222 -20 -26 -22
-34 -12 -60 57 -150 236 -307 350 -307 81 0 183 75 232 170 21 42 60 165 60
191 0 12 -13 24 -35 33 -75 32 -134 123 -135 208 0 77 24 121 114 204 51 47
76 78 68 81 -20 8 -60 55 -77 89 -29 61 -15 145 31 185 49 43 141 46 196 8z
m238 -40 c0 -7 11 -22 25 -35 21 -20 25 -21 26 -6 0 11 2 12 6 4 8 -19 -15
-41 -37 -35 -14 4 -20 0 -20 -11 0 -11 7 -16 18 -14 13 2 16 -3 14 -22 -2 -14
-8 -26 -12 -28 -5 -2 0 -12 11 -23 22 -22 24 -33 6 -51 -8 -7 -12 -19 -9 -26
2 -6 -2 -12 -8 -12 -8 0 -9 -7 -5 -17 4 -10 10 -25 13 -33 3 -8 -12 5 -34 30
-21 24 -38 47 -37 51 2 5 -4 6 -12 2 -13 -4 -12 0 2 25 10 17 20 29 22 26 2
-2 10 1 17 7 9 8 10 17 3 37 -5 14 -8 45 -5 69 2 24 0 46 -5 49 -14 8 -10 24
6 24 8 0 15 -5 15 -11z m217 -488 c-25 -29 -41 -85 -43 -146 -2 -79 -2 -78
-20 -71 -8 3 -12 2 -9 -4 3 -5 -5 -15 -18 -21 -21 -9 -30 -8 -51 7 -14 11 -28
25 -31 32 -7 18 5 63 15 57 4 -3 8 1 7 8 -2 53 4 97 13 92 6 -3 10 0 11 7 0 7
5 2 10 -12 6 -14 8 -41 4 -60 -4 -26 -3 -31 4 -20 6 8 11 27 11 43 0 15 5 27
11 27 6 0 8 -12 5 -32 l-6 -33 14 35 c11 28 14 31 18 15 3 -18 4 -18 10 3 6
20 4 23 -13 19 -22 -6 -25 6 -5 22 11 9 15 9 19 -1 3 -8 10 0 18 18 7 17 18
31 26 31 11 0 11 -3 0 -16z m1923 -405 c0 -19 5 -38 10 -41 6 -4 8 -10 6 -14
-7 -11 5 -24 52 -54 23 -15 42 -34 42 -42 0 -8 -18 -24 -39 -35 -26 -13 -38
-25 -37 -37 2 -10 1 -12 -1 -5 -9 26 -23 10 -29 -37 -8 -62 -16 -75 -42 -67
-15 5 -24 22 -33 62 -11 49 -17 58 -50 74 -20 11 -40 16 -44 12 -5 -4 -5 -2
-1 5 3 6 2 14 -4 18 -16 10 11 42 52 61 35 15 38 22 49 75 11 56 13 59 40 59
26 0 29 -3 29 -34z m-4912 -8 c7 -7 12 -27 12 -45 0 -29 5 -35 50 -58 43 -22
49 -28 41 -44 -6 -10 -24 -24 -40 -30 -29 -13 -44 -39 -56 -98 -5 -26 -12 -33
-30 -33 -18 0 -25 7 -30 33 -12 63 -26 84 -66 102 -22 10 -38 23 -36 29 2 6
23 24 47 41 26 18 47 43 53 60 5 17 10 36 12 43 5 15 27 16 43 0z m6352 -167
c0 -21 6 -43 13 -49 19 -16 147 -28 147 -14 0 6 -19 13 -42 15 l-43 4 48 1 47
2 0 -80 c0 -73 -2 -80 -20 -80 -23 0 -27 18 -5 26 8 4 15 17 15 30 0 29 -36
34 -55 8 -10 -14 -15 -15 -36 -4 -23 13 -23 13 -4 21 11 4 37 8 58 8 56 1 45
18 -15 24 -58 5 -132 30 -121 40 3 4 -10 7 -30 7 -33 0 -37 3 -37 26 l0 26
-80 -7 c-69 -6 -80 -5 -80 8 0 17 31 22 163 25 l77 2 0 -39z m-1846 -7 c10 -4
16 -18 16 -40 0 -30 3 -34 25 -34 14 0 25 -5 25 -11 0 -5 5 -7 11 -3 8 4 7 0
-1 -15 -6 -12 -22 -26 -36 -31 -14 -6 -23 -14 -20 -18 3 -5 -3 -20 -13 -35
-17 -26 -18 -26 -33 -10 -9 10 -18 27 -19 37 -2 11 -12 20 -23 22 -32 5 -41
21 -28 49 6 14 15 25 19 24 23 -4 33 3 33 24 0 13 5 28 12 35 14 14 12 14 32
6z m-4132 -36 c2 -25 9 -34 28 -38 38 -9 39 -45 1 -58 -24 -9 -31 -17 -31 -37
0 -22 -4 -26 -22 -23 -17 2 -24 11 -26 31 -3 21 -9 27 -27 27 -27 0 -40 26
-24 46 6 8 20 14 30 14 12 0 19 7 19 19 0 32 11 51 30 51 14 0 20 -9 22 -32z
m4666 -396 c2 -22 8 -32 21 -32 47 0 56 -56 11 -71 -21 -8 -30 -18 -30 -32 0
-32 -15 -49 -36 -45 -14 2 -20 13 -22 41 -3 33 -6 37 -32 37 -49 0 -51 56 -2
62 20 2 28 9 30 28 8 58 55 67 60 12z m-5140 -9 c3 -26 8 -32 30 -35 37 -4 39
-49 2 -58 -19 -4 -26 -14 -30 -40 -7 -47 -32 -46 -44 2 -7 29 -15 38 -35 40
-20 2 -27 9 -29 31 -3 24 0 27 27 27 27 0 31 3 31 28 0 33 8 44 30 40 9 -2 16
-16 18 -35z m415 -125 c37 -40 75 -83 83 -95 22 -32 10 -63 -25 -63 -21 0 -45
18 -104 79 -78 79 -93 111 -65 139 23 23 42 12 111 -60z m4381 53 c10 -11 15
-27 12 -38 -3 -10 -44 -56 -90 -102 -80 -80 -87 -84 -111 -73 -47 21 -34 55
57 148 45 46 89 84 98 84 9 0 25 -9 34 -19z m-1889 -92 c120 -11 272 -37 435
-75 123 -29 410 -119 434 -137 16 -12 15 -18 -9 -95 -14 -45 -28 -82 -30 -82
-2 0 -36 16 -77 35 -142 69 -448 153 -693 190 -230 35 -680 30 -915 -11 -199
-35 -460 -110 -626 -182 l-72 -30 -17 54 c-9 30 -18 69 -19 87 -1 40 13 47
234 121 250 83 509 129 800 140 124 5 428 -4 555 -15z m-3315 -133 c0 -30 3
-35 28 -38 19 -2 28 -9 30 -26 3 -18 -2 -23 -27 -28 -28 -6 -31 -10 -31 -44 0
-21 -6 -40 -12 -42 -26 -10 -38 4 -38 43 0 34 -3 39 -22 39 -58 1 -67 53 -10
58 28 3 32 7 32 31 0 32 7 41 32 41 14 0 18 -8 18 -34z m5950 0 c0 -32 3 -35
33 -38 27 -2 32 -7 32 -28 0 -21 -5 -26 -32 -28 -32 -3 -33 -5 -33 -48 0 -41
-2 -45 -22 -42 -19 2 -24 10 -26 46 -3 41 -4 42 -37 42 -38 0 -49 11 -40 39 4
13 17 21 37 23 26 2 33 9 40 36 6 22 14 32 28 32 16 0 20 -7 20 -34z m-4824
-133 c60 -65 130 -140 156 -168 76 -81 88 -97 88 -115 0 -36 -46 -53 -72 -26
-7 7 -62 67 -123 132 -60 65 -133 143 -162 174 -52 55 -64 85 -41 108 25 25
49 9 154 -105z m3808 101 c9 -8 16 -23 16 -32 0 -9 -44 -62 -96 -117 -274
-286 -253 -266 -287 -263 -65 6 -50 35 105 200 231 247 229 245 262 212z
m-1773 -124 c110 -11 291 -43 374 -65 104 -28 212 -63 260 -85 259 -118 419
-215 582 -352 265 -224 509 -555 624 -848 61 -154 91 -260 121 -425 31 -173
31 -507 0 -680 -48 -270 -168 -577 -306 -780 -124 -183 -272 -342 -391 -422
-74 -50 -175 -107 -179 -102 -2 2 54 65 126 139 227 236 348 399 457 613 219
427 276 901 162 1342 -79 306 -200 554 -375 770 -75 92 -245 264 -326 329
-366 296 -791 448 -1295 463 -292 8 -521 -30 -805 -134 -256 -94 -456 -215
-671 -404 -163 -145 -351 -392 -444 -584 -250 -516 -280 -1042 -89 -1547 128
-338 242 -508 631 -946 18 -20 31 -38 29 -40 -5 -4 -95 51 -166 101 -141 100
-362 366 -464 558 -99 185 -181 410 -225 614 -31 144 -40 407 -21 610 26 279
154 631 322 887 194 297 513 591 798 737 254 130 585 228 855 254 88 8 319 6
416 -3z m-2843 -122 c38 -26 43 -34 40 -61 -4 -47 -36 -47 -117 2 -37 22 -73
47 -80 55 -17 20 -6 63 17 68 20 5 78 -22 140 -64z m5416 56 c32 -31 17 -55
-64 -104 -78 -47 -107 -53 -130 -30 -28 28 -16 46 69 101 82 52 101 58 125 33z
m-5171 -197 c37 -22 72 -47 76 -56 14 -26 -5 -61 -33 -61 -21 0 -130 55 -163
82 -19 15 -16 65 4 76 21 12 32 8 116 -41z m4905 14 c4 -40 -10 -54 -102 -102
-68 -35 -105 -35 -117 0 -11 30 19 59 111 107 81 43 104 41 108 -5z m-2275 -6
c123 -14 287 -50 365 -80 133 -50 188 -73 274 -116 336 -167 618 -436 804
-766 81 -143 197 -433 181 -450 -4 -3 -24 6 -45 21 -21 14 -43 26 -49 26 -6 0
-23 -19 -39 -42 -24 -36 -29 -56 -34 -128 -6 -95 -22 -113 -45 -48 -7 21 -21
50 -31 65 -35 54 -84 156 -84 177 0 15 11 26 40 38 48 20 59 51 35 103 -17 34
-58 65 -88 65 -7 0 -35 14 -61 30 -45 29 -47 32 -32 49 21 23 20 43 -5 94 -33
65 -58 96 -102 128 -33 24 -46 28 -78 23 -34 -6 -40 -4 -50 20 -12 25 -42 35
-53 17 -8 -12 19 -63 44 -86 17 -16 25 -17 40 -7 11 7 28 12 38 12 35 0 113
-103 117 -155 1 -11 -4 -30 -12 -42 -13 -19 -12 -24 14 -52 15 -16 61 -46 100
-66 71 -35 95 -58 86 -82 -3 -7 -17 -13 -32 -13 -35 0 -51 -17 -51 -55 0 -49
37 -155 69 -200 17 -23 38 -66 48 -95 23 -67 38 -78 91 -62 49 15 56 32 53
128 -2 56 2 75 16 92 l18 22 52 -26 c48 -24 53 -29 62 -75 6 -26 16 -111 22
-189 25 -293 -32 -635 -146 -879 -39 -84 -48 -95 -79 -106 -20 -7 -33 -9 -31
-4 3 4 1 10 -5 14 -6 4 -8 10 -5 15 9 14 -6 40 -24 40 -14 0 -14 2 -1 10 9 5
19 5 27 -2 9 -7 13 -7 13 0 0 6 -9 16 -21 22 -12 7 -18 18 -15 26 3 8 0 14 -7
15 -9 0 -9 2 1 6 6 2 12 15 12 27 0 12 4 26 9 32 5 5 21 49 35 99 29 99 34
203 14 270 l-12 40 -6 -80 c-3 -44 -12 -91 -20 -105 -68 -125 -184 -180 -385
-180 -81 1 -91 3 -106 23 -87 123 -404 626 -398 631 2 1 69 40 149 86 194 111
341 198 361 213 18 14 31 67 16 67 -13 0 -205 -94 -299 -147 -43 -24 -79 -43
-81 -43 -2 0 -2 10 0 23 3 15 18 28 49 41 24 10 55 31 68 47 18 21 40 32 78
40 65 14 98 42 98 83 0 26 -10 38 -60 73 -48 34 -60 48 -60 70 0 28 25 63 46
63 7 0 29 15 49 34 31 30 36 40 33 73 -2 29 -10 42 -33 58 -27 17 -115 150
-115 173 0 5 11 36 25 70 14 34 25 73 25 87 0 26 1 26 61 23 50 -2 63 0 74 16
15 20 9 41 -22 72 -12 12 -18 33 -18 67 0 63 -17 70 -36 15 -16 -50 -14 -65
12 -94 10 -11 19 -26 19 -32 0 -16 -39 -15 -72 2 l-28 15 -37 -67 c-20 -37
-55 -101 -79 -142 -40 -72 -108 -213 -169 -348 -29 -64 -29 -64 -64 -58 -102
16 -374 38 -636 51 l-90 5 80 -29 c126 -44 118 -39 95 -68 -11 -14 -20 -41
-20 -59 0 -18 -6 -37 -14 -41 -32 -19 -56 -77 -56 -139 0 -51 5 -67 28 -100
45 -62 59 -69 131 -70 36 -1 71 -2 77 -3 7 -1 20 -17 29 -38 14 -29 16 -51 11
-110 -6 -65 -4 -85 20 -156 41 -124 51 -143 88 -154 22 -7 37 -6 49 1 12 8 20
8 25 1 8 -12 62 -14 62 -2 0 5 4 5 10 2 6 -4 5 -11 -3 -19 -6 -8 -14 -10 -17
-5 -3 4 -16 6 -28 2 -22 -5 -22 -8 -22 -194 l0 -189 403 0 c427 0 489 6 565
50 18 11 35 20 38 20 6 0 -39 -83 -84 -155 -48 -77 -161 -280 -203 -368 -57
-118 -124 -180 -229 -211 -42 -13 -102 -16 -272 -16 l-218 0 0 -156 c0 -110
-3 -153 -11 -148 -25 15 -399 613 -399 638 0 6 10 27 21 46 77 125 326 564
346 608 28 64 29 72 3 65 -11 -3 -20 -10 -20 -15 0 -6 -10 -23 -22 -38 -13
-16 -36 -47 -52 -70 -22 -32 -31 -39 -38 -28 -7 9 -8 8 -4 -6 4 -12 -2 -27
-19 -44 -14 -13 -25 -28 -25 -32 0 -4 -11 -10 -25 -12 -14 -3 -25 -1 -25 3 0
5 -7 9 -15 9 -8 0 -15 5 -15 10 0 6 5 10 10 10 17 0 25 -5 22 -12 -1 -5 7 -8
17 -8 33 0 29 24 -8 43 -20 11 -39 25 -43 31 -6 8 -8 7 -8 -2 0 -7 7 -15 15
-18 8 -4 15 -10 15 -15 0 -13 -28 -11 -32 2 -3 9 -10 9 -27 -1 -23 -12 -23
-11 -17 16 5 24 4 26 -4 11 -6 -9 -16 -15 -21 -11 -6 4 -5 12 3 22 9 12 6 11
-10 -2 -21 -18 -21 -29 -1 -32 5 -1 12 -2 15 -3 4 0 1 -8 -6 -16 -6 -8 -9 -19
-5 -25 9 -15 25 -2 18 15 -4 11 -1 13 12 9 9 -4 20 -1 25 6 5 8 9 9 14 1 4 -6
1 -11 -6 -11 -10 0 -9 -3 2 -10 8 -5 11 -12 7 -17 -5 -4 -12 -1 -16 6 -5 7
-14 10 -20 7 -15 -10 -14 -29 2 -20 9 5 9 4 0 -6 -10 -11 -16 -10 -33 5 -11
10 -20 24 -20 32 0 7 -5 13 -11 13 -6 0 -9 -8 -7 -18 4 -15 -1 -18 -27 -18
-18 1 -31 4 -29 8 2 3 -2 8 -8 11 -10 3 -10 7 1 20 8 10 9 17 3 17 -6 0 -14
-4 -17 -10 -3 -5 -15 -10 -26 -10 -10 0 -18 -5 -17 -12 2 -6 -6 -13 -17 -15
-16 -3 -17 -2 -5 6 8 6 11 11 5 11 -5 0 -3 4 5 10 12 8 12 10 -4 16 -11 4 -21
2 -26 -6 -5 -8 -9 -9 -14 -1 -4 6 -3 11 3 11 6 0 15 9 20 19 9 16 8 18 -9 14
-11 -3 -18 -9 -15 -13 3 -4 -10 -6 -28 -4 -17 1 -39 3 -47 4 -13 0 -13 1 0 10
8 5 12 12 9 15 -9 9 -40 -6 -33 -16 3 -5 -2 -6 -10 -3 -9 3 -14 10 -11 14 3 4
-2 11 -11 14 -10 4 -14 12 -10 23 6 14 3 14 -15 -3 -22 -19 -22 -19 -11 2 11
21 7 34 -10 34 -4 0 -9 -10 -9 -22 -2 -23 -2 -23 -6 0 -3 15 2 28 13 36 11 8
13 15 6 20 -6 3 -17 -1 -25 -9 -32 -31 -27 -14 6 25 18 22 44 60 57 86 13 25
38 57 54 70 61 49 76 67 82 93 4 14 22 43 42 63 44 46 46 83 6 115 -16 13 -47
28 -69 34 -62 16 -87 32 -105 64 -21 38 -75 75 -110 75 -15 0 -52 14 -83 30
-42 22 -70 30 -107 30 -48 0 -51 1 -56 30 -8 37 -19 47 -85 68 -29 9 -55 23
-57 31 -4 11 1 12 19 6 13 -4 43 -10 65 -12 36 -4 45 -1 68 24 15 15 39 48 53
73 56 95 74 110 132 110 58 0 76 14 91 70 13 49 21 54 56 35 24 -12 32 -12 49
-1 11 7 21 23 23 35 3 18 -1 22 -19 19 -19 -2 -26 4 -39 39 -8 22 -23 50 -33
61 -18 19 -18 22 -2 46 20 30 18 30 69 7 29 -12 41 -26 50 -51 15 -48 46 -51
98 -10 36 29 44 32 86 26 26 -3 49 -12 53 -19 4 -6 21 -31 38 -54 29 -40 32
-42 62 -31 17 6 33 17 36 24 3 8 -10 40 -30 72 -329 544 -340 561 -403 631
-141 156 -357 161 -527 11 -48 -43 -73 -77 -63 -87 3 -3 32 19 64 49 139 128
307 119 447 -25 62 -64 135 -172 135 -201 0 -9 -55 -102 -122 -206 -68 -105
-132 -205 -143 -223 -11 -18 -51 -77 -89 -132 -38 -55 -82 -124 -98 -152 -17
-29 -33 -53 -36 -52 -4 0 -26 13 -49 27 -23 15 -86 55 -140 88 -54 34 -143 90
-198 124 -137 86 -131 77 -91 135 55 83 156 254 156 265 0 24 -42 8 -61 -24
l-20 -34 -29 29 c-22 23 -37 29 -71 29 -44 0 -50 -5 -166 -131 -30 -33 -70
-57 -102 -62 -11 -2 -24 -6 -27 -10 -14 -14 -26 -7 -14 8 11 13 10 14 -4 9 -9
-3 -16 -12 -16 -19 0 -14 -45 -29 -60 -20 -5 3 -11 -3 -13 -12 -3 -11 -5 -8
-6 10 0 15 4 27 9 27 6 0 10 5 10 10 0 7 -6 7 -20 0 -11 -6 -19 -16 -17 -22 1
-7 -4 -12 -12 -13 -8 0 -16 -5 -18 -12 -3 -7 3 -9 17 -6 16 4 19 2 14 -11 -4
-10 -13 -15 -22 -11 -8 3 -19 0 -24 -7 -5 -9 -7 -4 -6 12 3 21 -1 25 -22 25
-16 0 -26 -6 -28 -19 -3 -14 0 -17 12 -13 10 4 16 1 16 -8 0 -21 -23 -18 -43
5 -17 20 -24 70 -9 70 4 0 17 22 29 48 20 44 88 138 195 270 55 67 196 186
318 267 210 141 539 264 800 300 131 18 350 18 503 0z m-2324 -184 c53 -32
120 -71 149 -86 65 -35 76 -48 68 -80 -9 -35 -47 -33 -121 9 -103 57 -214 123
-230 136 -29 24 -13 80 23 80 8 0 58 -26 111 -59z m4301 40 c20 -38 -3 -66
-97 -115 -48 -25 -113 -60 -143 -76 -70 -39 -105 -37 -105 5 0 26 8 35 67 70
239 144 258 152 278 116z m-5271 -192 c36 -13 65 -60 57 -93 -23 -93 -166 -86
-166 9 0 36 23 73 54 85 11 5 21 9 22 9 1 1 15 -4 33 -10z m6173 -19 c26 -27
30 -36 25 -67 -9 -53 -32 -73 -84 -73 -56 0 -83 25 -83 78 0 27 7 45 23 59 45
42 79 42 119 3z m-5831 -91 c46 -22 111 -52 144 -66 33 -13 140 -63 238 -111
175 -84 178 -86 175 -115 -6 -58 -23 -56 -184 21 -82 39 -227 107 -323 150
-96 43 -179 86 -185 94 -11 18 16 68 37 68 7 0 51 -18 98 -41z m5533 28 c11
-8 17 -23 14 -37 -3 -26 -66 -62 -224 -129 -38 -17 -149 -68 -245 -115 -194
-94 -219 -98 -219 -41 0 37 -16 27 225 140 50 23 131 62 180 85 262 125 242
117 269 97z m-2755 -346 c34 -54 61 -100 61 -103 0 -3 -19 0 -42 6 -32 9 -42
8 -46 -2 -5 -15 -31 -42 -41 -42 -4 0 -15 16 -24 35 -11 24 -26 37 -49 43 -18
5 -32 14 -31 20 5 23 95 152 103 147 4 -3 36 -49 69 -104z m-2634 -51 c79 -35
119 -95 119 -180 0 -72 -30 -126 -92 -165 -40 -26 -57 -30 -114 -30 -58 0 -72
4 -109 30 -27 19 -54 51 -72 85 -24 47 -28 63 -23 105 10 84 77 161 153 175
47 9 86 3 138 -20z m5268 16 c90 -33 146 -108 147 -197 0 -60 -45 -129 -109
-167 -37 -22 -58 -27 -112 -27 -84 0 -137 32 -174 105 -31 61 -32 119 -4 177
46 96 156 143 252 109z m-1622 -181 c6 -22 26 -54 45 -72 19 -17 34 -38 34
-46 0 -8 -22 -28 -49 -45 -60 -37 -85 -80 -78 -134 6 -47 24 -68 83 -99 24
-13 44 -27 44 -31 0 -9 -59 -28 -89 -28 -15 0 -31 8 -38 18 -10 17 -154 82
-181 82 -21 0 -13 -40 12 -65 13 -13 35 -26 48 -29 78 -16 78 -16 78 -42 0
-20 -9 -29 -42 -44 -49 -22 -122 -26 -138 -7 -6 6 -21 30 -33 51 -21 38 -81
85 -93 73 -6 -6 70 -165 86 -181 5 -5 26 -12 47 -15 43 -7 53 -29 30 -64 -8
-13 -51 -42 -96 -66 -53 -29 -81 -50 -81 -61 0 -10 10 -39 21 -66 l22 -48 -25
-20 c-14 -12 -38 -41 -53 -66 -38 -62 -75 -100 -98 -100 -24 0 -46 27 -47 57
0 12 -9 47 -21 77 -17 48 -19 63 -10 112 13 67 -6 148 -44 192 -21 25 -29 27
-97 27 -86 1 -109 11 -133 61 -24 51 -13 99 33 141 31 28 36 39 35 73 -3 55
30 80 104 80 43 0 61 -5 88 -26 28 -21 48 -26 124 -31 62 -4 95 -2 104 6 10 8
41 9 98 5 l84 -6 29 63 c16 35 55 120 86 189 31 69 60 134 64 144 6 19 7 19
21 0 8 -10 20 -37 26 -59z m-1779 -398 c-4 -55 13 -76 84 -102 61 -23 74 -33
74 -56 0 -11 9 -28 21 -40 17 -17 29 -20 60 -15 32 5 50 0 105 -29 36 -19 79
-35 95 -35 23 0 36 -11 70 -55 39 -52 78 -75 127 -75 7 0 24 -7 38 -16 l25
-17 -36 -32 c-22 -20 -35 -42 -35 -57 0 -25 -8 -35 -72 -89 -21 -17 -51 -54
-68 -82 -17 -29 -45 -69 -62 -90 -22 -25 -32 -48 -32 -72 -1 -30 -3 -33 -13
-19 -7 9 -10 21 -7 25 3 5 -2 6 -10 3 -19 -7 -19 -10 -2 93 7 45 10 80 5 77
-4 -2 -7 4 -7 13 4 54 -14 91 -69 144 -86 83 -104 145 -58 205 14 18 25 38 25
45 0 20 -31 49 -53 49 -11 0 -37 18 -58 40 -26 27 -57 46 -101 61 -85 29 -114
52 -122 92 -3 18 -19 54 -35 79 -56 87 -51 92 36 44 l78 -43 -3 -46z m-2001
13 c95 0 96 0 142 -64 14 -19 16 -19 40 -3 15 9 28 17 31 17 3 0 -6 -24 -19
-52 -14 -29 -25 -58 -25 -65 0 -24 -44 -43 -100 -43 -63 0 -96 14 -61 25 25 8
23 21 -12 73 l-22 32 -33 -67 c-18 -38 -38 -67 -44 -65 -5 1 -25 14 -43 27
-17 14 -41 25 -53 25 -36 0 -34 17 12 88 45 70 60 84 84 76 8 -2 54 -4 103 -4z
m5588 -26 c11 -14 22 -30 24 -37 3 -9 11 -9 35 0 18 6 32 9 32 7 0 -8 -60
-127 -71 -140 -14 -17 -159 -20 -159 -4 0 6 6 10 13 10 35 1 39 17 13 59 -15
23 -31 39 -37 36 -5 -4 -23 -34 -40 -67 l-30 -60 -22 20 c-12 12 -44 31 -71
43 -27 11 -44 24 -39 28 6 3 23 26 38 51 51 83 45 80 176 80 114 0 118 -1 138
-26z m-3638 -514 c103 -206 188 -376 189 -378 0 -6 -95 70 -135 106 -80 74
-176 154 -179 151 -1 -2 -36 -62 -78 -134 -42 -71 -117 -200 -167 -285 -51
-85 -115 -202 -144 -259 -49 -99 -52 -108 -52 -183 0 -43 -2 -78 -5 -78 -3 0
-10 10 -16 23 -53 111 -223 444 -249 487 -18 30 -43 84 -55 120 -38 111 -15
244 65 380 81 138 145 252 145 259 0 4 -12 13 -27 20 -25 11 -221 120 -233
128 -21 17 72 22 389 20 l363 -2 189 -375z m-1676 233 c36 -67 38 -74 27 -110
-6 -21 -29 -68 -51 -103 l-39 -65 -61 -3 -61 -3 0 -34 c0 -19 -3 -35 -7 -35
-5 0 -25 34 -47 74 l-39 74 37 66 c20 36 39 66 42 66 3 0 10 -13 15 -30 10
-27 15 -30 55 -30 l44 0 -51 71 c-29 39 -58 73 -65 76 -22 8 -16 23 9 23 29 1
98 32 116 54 17 20 18 19 76 -91z m5445 25 c22 -46 40 -95 40 -110 0 -27 -58
-148 -87 -180 -12 -13 -31 -18 -70 -18 l-53 0 0 -35 c0 -19 -4 -35 -8 -35 -9
0 -82 124 -82 139 0 22 65 141 75 138 5 -2 11 -16 13 -30 3 -25 7 -27 48 -27
24 0 44 4 44 9 0 13 -100 141 -110 141 -6 0 -10 5 -10 10 0 6 10 10 23 10 29
1 98 32 116 53 7 10 15 17 17 17 3 0 22 -37 44 -82z m-5859 -5 c37 -72 35 -89
-6 -59 -17 12 -21 10 -48 -31 -15 -25 -25 -48 -22 -51 3 -4 42 -5 85 -3 l80 3
0 -81 0 -81 -65 0 c-109 0 -125 12 -185 134 l-51 107 25 46 c32 56 32 59 1 67
-14 4 -25 11 -25 17 0 6 32 9 86 7 l87 -3 38 -72z m5441 60 c8 -10 18 -30 22
-45 3 -14 18 -40 32 -57 29 -35 27 -37 -20 -17 l-34 14 -31 -44 c-17 -25 -31
-47 -31 -49 0 -3 38 -5 85 -5 l85 0 0 -80 0 -80 -62 1 c-109 1 -124 11 -179
119 -27 52 -49 106 -49 119 0 13 12 40 27 59 25 33 26 36 9 46 -56 34 -54 35
40 36 74 0 94 -3 106 -17z m-5262 -632 c0 -50 13 -72 51 -92 51 -25 51 -52 3
-70 -32 -12 -39 -21 -53 -69 -22 -72 -41 -72 -64 1 -14 46 -23 58 -52 72 -44
21 -44 40 1 67 37 23 54 54 54 95 0 13 8 31 17 40 16 16 17 16 30 -1 7 -10 13
-29 13 -43z m5390 -3 c11 -44 24 -65 55 -93 38 -33 39 -36 21 -48 -54 -34 -69
-55 -75 -98 -4 -31 -11 -45 -24 -47 -9 -2 -19 2 -21 10 -2 7 -9 32 -15 56 -10
34 -19 46 -51 62 -22 11 -40 26 -40 34 0 7 18 25 39 39 27 18 41 36 45 57 3
16 9 44 12 61 10 49 36 33 54 -33z m-5889 -205 c1 -91 9 -108 54 -127 47 -20
45 -41 -7 -58 l-43 -13 -3 -57 c-3 -54 -5 -58 -27 -58 -24 0 -25 3 -25 59 l0
59 -45 11 c-29 7 -45 17 -45 27 0 8 20 24 45 35 l45 20 0 59 c0 71 6 90 31 90
16 0 19 -8 20 -47z m6343 31 c3 -9 6 -41 6 -73 0 -56 1 -58 40 -80 50 -28 51
-47 1 -61 -42 -11 -51 -27 -51 -92 0 -31 -4 -38 -19 -38 -23 0 -31 19 -31 76
0 46 -1 47 -64 56 -42 6 -30 32 32 68 31 19 32 22 32 83 0 35 3 67 7 70 12 13
41 7 47 -9z m-3386 -506 l-3 -323 -345 -3 c-360 -3 -453 4 -518 37 -119 61
-186 214 -153 348 7 26 35 96 63 156 l51 107 454 0 453 0 -2 -322z m2750 266
c52 -26 92 -74 92 -111 0 -23 -14 -37 -45 -47 -17 -5 -23 0 -33 27 -11 31 -30
47 -74 61 -32 10 -78 -15 -104 -55 -22 -36 -26 -38 -49 -27 -33 15 -33 52 2
106 47 73 124 90 211 46z m-4847 -89 c27 -39 35 -42 61 -18 29 26 32 8 8 -49
-42 -99 -40 -98 -133 -98 -78 1 -81 1 -54 16 15 8 27 16 27 19 0 2 -14 27 -32
55 l-32 51 -33 -82 c-18 -45 -34 -84 -36 -86 -2 -2 -30 12 -62 32 -33 19 -65
35 -72 35 -14 0 21 79 59 133 l19 27 128 0 128 0 24 -35z m4614 -100 c44 -19
90 -35 103 -35 26 0 28 -6 7 -26 -21 -22 -19 -54 7 -81 28 -30 62 -29 87 3 21
26 19 46 -7 77 -18 21 -21 19 53 41 33 10 77 27 97 37 49 25 83 26 73 2 -5
-10 -19 -62 -33 -115 l-26 -98 -207 0 -208 0 -10 43 c-6 23 -21 75 -34 115
l-24 72 21 0 c12 0 57 -16 101 -35z m-4480 -139 c19 -40 35 -85 35 -98 0 -27
-70 -170 -97 -200 -12 -13 -31 -18 -75 -18 -57 0 -58 0 -58 -28 0 -49 -12 -44
-52 25 l-39 67 17 46 c34 92 74 135 74 79 0 -22 6 -25 68 -33 51 -7 52 0 12
59 -16 24 -30 48 -30 53 0 5 -11 21 -25 36 l-24 26 27 0 c33 0 112 35 112 50
0 30 25 2 55 -64z m-402 -23 c37 -73 35 -89 -10 -58 -20 14 -23 12 -56 -33
l-36 -47 85 -3 84 -3 0 -73 c0 -40 -2 -75 -4 -77 -2 -2 -41 -3 -85 -1 l-81 4
-28 41 c-29 43 -82 166 -82 191 0 7 12 31 26 52 24 35 25 39 9 49 -55 33 -53
35 45 32 l95 -2 38 -72z m-557 28 c5 -33 11 -40 35 -45 16 -3 32 -12 35 -21 8
-21 -14 -45 -41 -45 -25 0 -35 -17 -35 -57 0 -20 -4 -24 -22 -21 -19 2 -24 10
-26 41 -3 30 -7 37 -25 37 -57 1 -64 49 -9 65 17 5 32 15 32 21 0 27 20 64 35
64 9 0 17 -14 21 -39z m6370 -6 c5 -29 12 -37 38 -43 44 -12 42 -43 -4 -58
-31 -10 -36 -16 -40 -50 -4 -30 -9 -39 -25 -39 -15 0 -21 10 -28 41 -7 38 -11
43 -42 48 -47 9 -49 44 -5 53 32 6 50 28 50 62 0 16 6 21 25 21 20 0 25 -6 31
-35z m-500 -129 c15 -12 17 -18 8 -33 -10 -17 -33 -18 -286 -21 -298 -3 -314
0 -282 46 15 22 19 22 278 22 213 0 266 -3 282 -14z m-5676 -204 c0 -36 2 -39
38 -48 26 -6 38 -15 40 -30 3 -18 -4 -23 -35 -31 -35 -8 -38 -12 -41 -45 -6
-73 -59 -78 -64 -6 -3 39 -6 43 -36 49 -18 4 -36 10 -40 13 -12 12 14 41 46
51 27 8 32 14 32 40 0 38 6 45 37 45 20 0 23 -5 23 -38z m5960 -2 c0 -34 3
-40 21 -40 31 0 59 -19 59 -39 0 -14 -11 -22 -37 -28 -36 -8 -38 -11 -43 -53
-4 -37 -9 -45 -25 -45 -16 0 -21 8 -23 43 -2 24 -9 45 -15 47 -7 2 -25 6 -40
10 -41 9 -33 45 13 60 25 8 36 18 38 36 5 40 11 49 32 49 17 0 20 -6 20 -40z
m-734 -51 c22 -18 17 -55 -8 -65 -13 -5 -121 -8 -241 -6 -235 4 -236 4 -223
56 3 14 14 27 24 30 33 10 434 -3 448 -15z m-4081 -5 c14 -14 14 -19 2 -38
-13 -19 -25 -21 -122 -24 -70 -2 -112 1 -121 9 -14 12 -19 51 -7 62 3 4 57 7
119 7 90 0 116 -3 129 -16z m-917 -226 c18 -18 14 -46 -7 -58 -21 -11 -537
-15 -565 -4 -19 7 -21 45 -4 62 17 17 559 17 576 0z m1177 -7 c8 -26 -3 -48
-28 -55 -12 -3 -240 -6 -507 -6 -365 0 -489 3 -498 12 -17 17 -15 45 6 57 11
7 197 11 519 11 480 0 502 -1 508 -19z m4863 -9 c8 -54 50 -52 -880 -52 -573
0 -866 3 -879 10 -21 12 -25 40 -7 58 9 9 215 12 888 10 l875 -3 3 -23z
m-6251 -258 c26 -9 62 -27 80 -40 44 -34 82 -116 90 -197 l6 -67 -90 0 -90 0
-5 50 c-6 56 -26 85 -65 93 -61 12 -104 -26 -105 -94 -1 -56 24 -89 127 -168
106 -82 174 -151 203 -206 24 -44 27 -61 27 -145 0 -86 -3 -100 -30 -148 -47
-86 -108 -123 -217 -130 -140 -9 -241 50 -271 160 -16 55 -37 161 -33 166 2 1
44 3 95 5 l92 2 4 -49 c10 -153 179 -149 179 4 0 27 -6 56 -15 66 -13 16 -97
90 -217 192 -102 86 -141 181 -121 296 13 75 42 129 90 168 71 57 173 73 266
42z m5519 -7 c80 -42 129 -124 141 -239 l6 -58 -90 0 -90 0 -5 51 c-6 58 -27
85 -74 95 -26 5 -37 1 -63 -23 -70 -62 -46 -132 82 -236 201 -164 241 -224
240 -353 -2 -170 -88 -271 -244 -282 -89 -6 -164 16 -211 64 -48 47 -68 91
-79 172 -5 37 -11 73 -14 80 -3 9 14 12 68 12 40 0 82 3 93 6 20 5 22 1 26
-52 4 -49 10 -62 37 -86 17 -15 40 -28 51 -28 73 0 120 85 91 163 -6 14 -43
53 -83 87 -227 192 -263 239 -275 353 -12 113 63 246 160 281 54 20 189 16
233 -7z m-4928 -53 c13 -67 129 -494 136 -502 3 -2 10 16 16 39 6 24 20 71 30
104 21 66 106 369 112 398 3 15 18 18 131 20 70 1 126 0 124 -3 -2 -3 -11 -23
-21 -45 -17 -36 -18 -72 -14 -480 3 -382 5 -444 20 -472 9 -17 13 -34 10 -37
-3 -3 -57 -6 -120 -6 -105 0 -114 1 -106 18 4 9 9 91 11 182 2 91 4 218 6 282
1 64 0 115 -2 112 -2 -2 -12 -43 -22 -91 -23 -120 -99 -453 -109 -478 -7 -18
-15 -20 -73 -17 l-65 4 -21 111 c-13 62 -35 166 -51 232 -15 66 -31 143 -35
170 -17 117 -24 65 -19 -155 5 -257 9 -326 19 -352 7 -17 -2 -18 -105 -18
-103 0 -111 1 -104 18 5 9 10 228 12 487 3 463 -1 525 -30 525 -5 0 -7 3 -5 8
3 4 63 7 134 8 l129 1 12 -63z m1077 -4 c7 -69 66 -436 110 -685 27 -154 47
-247 60 -277 7 -17 -2 -18 -104 -18 l-111 0 0 63 c0 34 -3 79 -6 100 l-7 37
-82 0 -82 0 -7 -31 c-3 -17 -6 -62 -6 -100 l0 -69 -111 0 c-102 0 -111 1 -104
18 12 28 34 123 44 193 5 35 33 199 61 364 28 165 54 339 57 386 l6 86 137 -1
138 -1 7 -65z m670 38 c89 -49 120 -126 120 -293 -1 -135 -11 -180 -56 -249
l-32 -47 38 -137 c32 -119 63 -212 90 -274 7 -17 -2 -18 -105 -18 -105 0 -111
1 -105 19 7 22 -16 139 -52 269 l-26 92 -43 0 c-31 0 -43 -4 -46 -16 -5 -28 9
-318 17 -341 7 -23 7 -23 -102 -23 -60 0 -113 3 -116 7 -4 3 -1 13 6 21 9 11
13 131 15 495 2 420 1 482 -13 497 -8 9 -13 19 -11 21 2 2 91 2 198 -1 154 -4
199 -8 223 -22z m755 -69 l0 -96 -80 5 -80 5 0 -399 c0 -322 3 -404 14 -426 8
-15 12 -29 8 -32 -3 -3 -54 -6 -113 -6 l-108 0 10 32 c5 18 9 211 9 429 l0
397 -85 -6 -84 -5 3 99 c2 54 5 99 5 99 1 0 114 0 251 0 l250 0 0 -96z m635
83 c-20 -46 -17 -72 59 -527 27 -162 21 -177 71 176 37 259 42 324 24 334 -28
18 7 27 114 28 101 2 116 0 111 -13 -20 -48 -14 -135 35 -480 19 -138 30 -186
34 -165 7 32 54 308 83 491 17 105 17 113 1 137 -9 15 -17 28 -17 31 0 3 230
0 258 -4 2 0 -7 -13 -20 -28 -19 -22 -29 -58 -47 -158 -13 -71 -38 -205 -56
-299 -60 -300 -85 -452 -85 -504 l0 -51 -108 0 -108 0 -18 123 c-20 134 -64
378 -69 384 -2 2 -11 -41 -21 -94 -9 -54 -25 -145 -36 -203 -11 -58 -21 -129
-21 -157 l-1 -53 -118 0 -118 0 5 43 c6 47 -2 96 -88 567 -67 363 -73 393 -94
414 -8 8 -15 16 -15 18 0 2 57 4 126 5 114 1 125 0 119 -15z m1175 -25 c0
-102 144 -928 170 -977 5 -10 10 -21 10 -24 0 -3 -49 -6 -109 -6 l-109 0 -7
100 -7 100 -83 0 c-46 0 -87 -5 -90 -10 -4 -6 -9 -51 -12 -100 l-6 -90 -108 0
c-98 0 -128 7 -100 25 12 7 36 117 61 280 11 72 38 236 60 365 22 129 43 267
46 305 l7 70 138 0 139 0 0 -38z m1400 -19 c0 -35 3 -79 6 -98 l6 -35 -126 4
-126 3 0 -126 0 -126 72 0 c52 0 76 4 90 17 17 15 18 12 18 -101 l0 -117 -22
15 c-15 11 -45 16 -90 16 l-68 0 0 -136 0 -136 93 4 c61 3 103 10 125 22 19
10 35 16 36 14 1 -2 0 -49 -2 -105 l-4 -103 -225 0 c-211 0 -225 1 -217 18 5
9 10 203 12 431 l3 413 -62 -7 -62 -7 6 68 c4 38 7 81 7 96 l0 28 248 3 c136
1 255 3 265 5 15 2 17 -7 17 -60z m-4322 -1171 c6 -7 14 -36 18 -65 8 -66 37
-110 92 -140 23 -13 42 -28 42 -33 0 -5 -17 -18 -37 -29 -71 -37 -87 -62 -99
-149 -11 -83 -56 -78 -69 7 -10 68 -43 115 -107 148 -16 8 -28 18 -27 22 0 4
19 21 41 37 57 41 76 71 88 134 14 73 34 97 58 68z m1910 -4 c5 -10 15 -43 21
-72 14 -64 47 -113 90 -131 45 -18 40 -42 -14 -70 -40 -21 -71 -70 -80 -126
-9 -64 -14 -74 -36 -74 -18 0 -39 50 -39 96 0 33 -41 86 -84 108 -22 12 -41
26 -43 33 -3 7 14 21 37 33 49 25 76 66 90 140 6 30 13 61 15 68 6 18 33 15
43 -5z m-2204 -9 c19 -7 21 -45 4 -62 -16 -16 -788 -17 -788 -2 0 6 -8 10 -17
10 -15 0 -16 -2 -3 -10 10 -6 -38 -10 -146 -10 -133 0 -164 3 -174 15 -10 12
-10 21 -2 40 l12 25 549 0 c302 0 556 -3 565 -6z m3568 -19 c8 -19 8 -28 -2
-40 -11 -13 -80 -15 -550 -15 -296 0 -545 3 -554 6 -18 7 -20 27 -6 55 10 18
27 19 556 19 l544 0 12 -25z m-2227 -20 c95 -25 159 -61 215 -122 87 -96 130
-205 130 -332 0 -120 -44 -234 -117 -302 -50 -49 -136 -102 -198 -124 -85 -31
-273 -27 -309 6 -6 5 -17 9 -26 9 -8 0 -26 7 -39 16 -18 13 -20 18 -10 26 10
7 8 8 -8 3 -30 -8 -126 86 -158 157 -82 179 -67 348 43 492 118 153 296 217
477 171z m-1421 -138 c8 -12 8 -22 0 -35 -10 -16 -65 -17 -889 -20 -640 -1
-881 1 -891 9 -17 14 -18 41 -2 57 9 9 216 12 891 10 825 -3 881 -4 891 -21z
m4437 13 c21 -12 25 -40 7 -58 -17 -17 -1729 -17 -1746 0 -16 16 -15 33 4 52
14 14 106 16 865 16 567 0 857 -3 870 -10z m-4691 -345 c4 -24 11 -31 33 -33
21 -3 27 -9 27 -26 0 -18 -7 -25 -30 -29 -26 -6 -30 -11 -30 -41 0 -62 -47
-59 -52 2 -3 32 -7 38 -33 42 -22 4 -30 11 -30 25 0 15 8 21 33 23 23 2 32 8
32 22 0 55 41 67 50 15z m3208 -2 c3 -28 7 -32 35 -35 45 -4 45 -39 0 -52 -26
-8 -33 -16 -35 -40 -2 -23 -9 -32 -25 -34 -18 -3 -23 3 -29 32 -4 25 -12 36
-23 36 -10 0 -25 6 -35 13 -25 19 -10 47 25 47 23 0 30 5 35 28 9 38 14 44 32
40 11 -2 18 -15 20 -35z"/>
<path d="M6955 5110 c-25 -40 -39 -48 -50 -30 -10 17 -44 11 -55 -9 -5 -11
-10 -36 -10 -55 0 -35 1 -36 39 -36 47 0 79 24 126 94 43 65 44 76 5 76 -24 0
-35 -8 -55 -40z"/>
<path d="M2488 6084 c-81 -44 -74 -184 11 -229 68 -35 159 -6 187 60 16 40 11
74 -18 123 -36 58 -119 80 -180 46z m105 -25 c54 -25 62 -97 14 -133 -26 -19
-30 -19 -69 -6 -73 26 -90 96 -31 132 33 21 53 22 86 7z"/>
<path d="M7819 6101 c-71 -22 -99 -61 -99 -137 0 -41 5 -51 39 -85 34 -34 44
-39 86 -39 61 0 100 24 126 77 15 31 18 51 13 80 -8 44 -61 103 -92 103 -11 0
-26 2 -34 4 -7 2 -25 1 -39 -3z m95 -57 c42 -43 31 -124 -19 -124 -28 0 -34
13 -27 58 3 24 1 32 -11 32 -28 0 -49 -31 -43 -62 6 -32 -7 -37 -42 -12 -39
27 -25 91 26 118 43 24 86 20 116 -10z"/>
<path d="M3817 2800 c-4 -19 -16 -100 -27 -180 -11 -80 -22 -157 -25 -171 -4
-25 -2 -27 53 -32 31 -3 59 -3 63 1 3 4 -9 99 -26 212 -24 155 -33 196 -38
170z"/>
<path d="M4420 2776 l0 -156 34 0 c52 0 95 20 111 51 10 18 15 58 15 117 0
117 -12 134 -99 140 l-61 4 0 -156z"/>
<path d="M7041 2739 c-25 -169 -40 -285 -41 -306 0 -21 4 -23 60 -23 50 0 60
3 60 17 0 31 -51 357 -59 377 -5 14 -11 -6 -20 -65z"/>
<path d="M4967 1593 c-17 -16 -6 -54 18 -65 28 -12 30 -19 14 -35 -6 -6 -11
-31 -11 -55 1 -51 35 -88 83 -88 34 0 79 41 79 71 0 16 8 19 43 19 23 0 52 3
65 6 20 6 22 3 22 -28 0 -59 61 -90 118 -59 40 22 50 89 19 129 -7 9 -3 20 16
40 46 48 27 95 -19 49 -49 -49 -91 -62 -199 -62 -107 0 -168 19 -209 64 -20
22 -28 25 -39 14z"/>
<path d="M5095 1188 c-56 -20 -62 -20 -102 -6 -40 14 -43 14 -43 -1 0 -30 30
-60 65 -67 26 -4 55 1 107 20 77 29 94 29 186 -5 68 -24 103 -24 136 2 34 26
36 65 4 54 -53 -16 -76 -15 -126 4 -67 27 -148 26 -227 -1z"/>
<path d="M7888 9234 c3 -39 1 -54 -7 -50 -6 4 -11 21 -11 38 0 27 -2 29 -16
17 -8 -7 -13 -20 -11 -30 3 -10 0 -16 -7 -13 -7 3 -11 -10 -11 -36 0 -35 2
-39 19 -34 12 4 16 2 12 -5 -4 -5 -1 -19 5 -29 8 -13 9 -31 3 -58 -9 -38 -11
-39 -59 -45 l-50 -6 43 -1 c23 -1 42 -6 42 -12 0 -16 19 -11 41 11 12 12 21
31 20 43 -2 57 -6 72 -20 83 -14 11 -12 12 12 13 15 0 27 4 27 10 0 5 -6 7
-13 4 -8 -3 -20 2 -27 11 -14 16 -10 18 38 15 26 -1 32 2 32 19 0 23 -26 29
-33 9 -3 -12 -5 1 -10 80 -1 12 -6 22 -12 22 -6 0 -9 -23 -7 -56z"/>
<path d="M7595 9049 c-5 -63 -4 -84 7 -90 7 -4 13 -16 13 -26 0 -11 11 -19 33
-24 17 -3 32 -3 32 2 0 5 5 9 11 9 6 0 9 -9 6 -20 -4 -16 0 -20 20 -20 19 0
23 4 18 19 -4 13 0 23 12 30 16 9 15 10 -9 11 -30 0 -44 16 -40 43 2 9 -2 17
-7 17 -6 0 -11 9 -11 20 0 13 -7 20 -20 20 -13 0 -20 -7 -20 -20 0 -13 -7 -20
-20 -20 -13 0 -20 7 -20 20 0 11 6 20 14 20 9 0 15 15 18 45 2 36 0 45 -13 45
-13 0 -18 -16 -24 -81z"/>
<path d="M9333 8617 c-29 -6 -53 -14 -53 -19 0 -14 -27 -9 -40 7 -7 8 -19 15
-26 15 -8 0 -14 -7 -14 -15 0 -11 -11 -15 -40 -15 -30 0 -40 4 -40 16 0 9 -7
14 -17 12 -25 -5 -28 -29 -4 -35 12 -3 21 -9 21 -14 0 -5 9 -9 19 -9 12 0 18
-7 17 -17 -1 -13 10 -21 37 -27 20 -5 37 -13 37 -18 0 -13 -55 -9 -68 4 -10
10 -17 10 -31 1 -10 -7 -28 -9 -39 -6 -11 3 -29 0 -39 -6 -15 -8 -10 -10 25
-11 30 0 42 -4 42 -15 0 -11 -11 -15 -40 -15 -23 0 -40 -5 -40 -11 0 -8 18
-10 61 -5 34 3 70 6 80 6 12 0 19 7 19 20 0 15 7 20 25 20 23 0 25 4 25 40 0
38 2 40 31 40 37 0 59 -20 59 -54 0 -14 5 -26 10 -26 6 0 10 14 10 30 0 17 -5
30 -11 30 -6 0 -9 7 -5 15 4 12 -3 15 -29 15 -19 0 -35 4 -35 9 0 12 37 21 88
21 31 0 42 4 42 15 0 16 -2 16 -77 2z"/>
</g>
</svg>
